HIERARCHY
ROOT Hips
{
  OFFSET 51.0826 95.6231 22.0414
  CHANNELS 6 Xposition Yposition Zposition Zrotation Xrotation Yrotation
  JOINT spine
  {
    OFFSET 0 7.96568 0.458067
    CHANNELS 3 Zrotation Xrotation Yrotation
    JOINT spine1
    {
      OFFSET 0 10.2431 0
      CHANNELS 3 Zrotation Xrotation Yrotation
      JOINT spine2
      {
        OFFSET 0 9.81475 0
        CHANNELS 3 Zrotation Xrotation Yrotation
        JOINT Neck
        {
          OFFSET 0 25.1986 1.20138
          CHANNELS 3 Zrotation Xrotation Yrotation
          JOINT Head
          {
            OFFSET 0 7.61315 0
            CHANNELS 3 Zrotation Xrotation Yrotation
            End Site
            {
              OFFSET 0 18.4281 -6.07733
            }
          }
        }
        JOINT RightShoulder
        {
          OFFSET -4.1327 10.5992 -0.575451
          CHANNELS 3 Zrotation Xrotation Yrotation
          JOINT RightArm
          {
            OFFSET 0 13.9018 0
            CHANNELS 3 Zrotation Xrotation Yrotation
            JOINT RightArmRoll
            {
              OFFSET 0 7.01788 0
              CHANNELS 3 Zrotation Xrotation Yrotation
              JOINT RightForeArm
              {
                OFFSET 0 20.4406 0
                CHANNELS 3 Zrotation Xrotation Yrotation
                JOINT RightForeArmRoll
                {
                  OFFSET 0 7.87516 0
                  CHANNELS 3 Zrotation Xrotation Yrotation
                  JOINT RightHand
                  {
                    OFFSET 0 15.8037 0
                    CHANNELS 3 Zrotation Xrotation Yrotation
                    End Site
                    {
                      OFFSET 0 0 0
                    }
                  }
                }
              }
            }
          }
        }
        JOINT LeftShoulder
        {
          OFFSET 4.1327 10.5992 -0.575451
          CHANNELS 3 Zrotation Xrotation Yrotation
          JOINT LeftArm
          {
            OFFSET 0 13.9018 0
            CHANNELS 3 Zrotation Xrotation Yrotation
            JOINT LeftArmRoll
            {
              OFFSET 0 7.01788 0
              CHANNELS 3 Zrotation Xrotation Yrotation
              JOINT LeftForeArm
              {
                OFFSET 0 20.4406 0
                CHANNELS 3 Zrotation Xrotation Yrotation
                JOINT LeftForeArmRoll
                {
                  OFFSET 0 7.87516 0
                  CHANNELS 3 Zrotation Xrotation Yrotation
                  JOINT LeftHand
                  {
                    OFFSET 0 15.8037 0
                    CHANNELS 3 Zrotation Xrotation Yrotation
                    End Site
                    {
                      OFFSET 0 0 0
                    }
                  }
                }
              }
            }
          }
        }
      }
    }
  }
  JOINT RightUpLeg
  {
    OFFSET -7.06048 -1.2947 -1.08609
    CHANNELS 3 Zrotation Xrotation Yrotation
    JOINT RightUpLegRoll
    {
      OFFSET 0 18.5308 0
      CHANNELS 3 Zrotation Xrotation Yrotation
      JOINT RightLeg
      {
        OFFSET 0 -22.9476 0
        CHANNELS 3 Zrotation Xrotation Yrotation
        JOINT RightLegRoll
        {
          OFFSET 0 23.0226 0
          CHANNELS 3 Zrotation Xrotation Yrotation
          JOINT RightFoot
          {
            OFFSET 0 19.1625 0
            CHANNELS 3 Zrotation Xrotation Yrotation
            JOINT RightToeBase
            {
              OFFSET 0 16.0188 0
              CHANNELS 3 Zrotation Xrotation Yrotation
              End Site
              {
                OFFSET 0.00678979 7.75782 -0.894206
              }
            }
          }
        }
      }
    }
  }
  JOINT LeftUpLeg
  {
    OFFSET 7.06048 -1.2947 -1.08609
    CHANNELS 3 Zrotation Xrotation Yrotation
    JOINT LeftUpLegRoll
    {
      OFFSET 0 18.5309 0
      CHANNELS 3 Zrotation Xrotation Yrotation
      JOINT LeftLeg
      {
        OFFSET 0 22.9475 0
        CHANNELS 3 Zrotation Xrotation Yrotation
        JOINT LeftLegRoll
        {
          OFFSET 0 23.2355 0
          CHANNELS 3 Zrotation Xrotation Yrotation
          JOINT LeftFoot
          {
            OFFSET 0 18.9496 0
            CHANNELS 3 Zrotation Xrotation Yrotation
            JOINT LeftToeBase
            {
              OFFSET 0 16.0188 0
              CHANNELS 3 Zrotation Xrotation Yrotation
              End Site
              {
                OFFSET -0.0304289 7.75782 -0.894207
              }
            }
          }
        }
      }
    }
  }
}
MOTION
Frames: 5
Frame Time: 0.00208333
47.8484 123.494 26.0852 -3.0471 4.46095 2.56025 0.551174 -0.900649 -0.0796897 1.10239 2.20024 -0.222247 1.10614 3.84513 -0.240896 12.5787 5.56998 -2.8838 -10.128 -4.658 -1.76414 59.3517 -8.91512 -5.54902 95.5865 -6.81588 25.998 6.36111e-015 -1.27222e-014 -6.36111e-015 10.483 2.91145 -0.449976 -4.25597e-006 -2.96682e-006 -3.00401 8.02944 -4.95143 0.697668 -51.2504 1.36324 -1.93057 -100.24 -14.9378 -16.6334 -2.54444e-014 -3.18055e-015 1.43125e-014 -17.99 16.3037 2.2775 6.27627e-006 -1.06107e-006 3.00688 -8.02924 -4.95142 -0.697654 173.763 10.373 0.33521 180 7.01565e-015 179.004 175.628 12.2324 179.843 3.29162e-006 -8.28294e-006 0.161796 -18.2595 67.4028 19.0612 8.13649 25.2327 -3.48774 -168.385 14.764 -4.93254 4.54188e-006 -4.6773e-006 -1.03807 -3.24267 -22.6689 -0.0746565 -1.86878e-007 -6.38552e-006 -0.362609 19.9389 69.3071 -20.696 -8.13649 25.2327 3.48774 
47.8715 123.243 26.0336 -3.02654 4.50084 2.53669 0.553699 -0.900688 -0.0782668 1.10745 2.20016 -0.219687 1.11118 3.84506 -0.238419 12.4174 5.58366 -2.86744 -10.0269 -4.68098 -1.76683 59.3036 -8.92112 -5.55208 95.7078 -6.92887 25.9235 7.95139e-015 -3.18055e-015 -3.18055e-015 10.5493 3.15602 -0.476989 -4.25597e-006 -2.96682e-006 -3.00401 8.02944 -4.95143 0.697668 -51.3448 1.36417 -1.91667 -100.336 -15.1695 -16.3763 7.15625e-015 0 -0 -18.1886 16.8113 2.38876 6.27627e-006 -1.06107e-006 3.00687 -8.02924 -4.95142 -0.697654 173.724 10.422 0.322466 180 7.01565e-015 179.005 175.667 12.1648 179.837 3.29162e-006 -8.28294e-006 0.160197 -18.2607 67.4035 19.0621 8.13649 25.2327 -3.48774 -168.414 14.7833 -4.89571 4.54188e-006 -4.6773e-006 -1.03845 -3.23145 -22.5489 -0.0716692 -1.86878e-007 -6.38552e-006 -0.360798 19.9314 69.2986 -20.6885 -8.13649 25.2327 3.48774 
47.8852 123.025 26.0508 -3.00582 4.54122 2.51377 0.555866 -0.900679 -0.0767054 1.1118 2.20019 -0.21681 1.11549 3.84508 -0.235613 12.261 5.59326 -2.8518 -9.92932 -4.69947 -1.76973 59.2602 -8.93106 -5.55763 95.8261 -7.03915 25.8462 -1.59028e-015 -3.18055e-015 3.18055e-015 10.6165 3.40631 -0.504913 -4.25597e-006 -2.96682e-006 -3.00401 8.02944 -4.95143 0.697668 -51.4341 1.36217 -1.90146 -100.436 -15.3933 -16.1222 1.59028e-015 -3.18055e-015 -0 -18.3798 17.3148 2.49984 6.27627e-006 -1.06107e-006 3.00687 -8.02924 -4.95142 -0.697654 173.685 10.4715 0.310865 180 7.01565e-015 179.006 175.703 12.0977 179.831 3.29162e-006 -8.28294e-006 0.158648 -18.2621 67.4041 19.0631 8.13649 25.2327 -3.48774 -168.443 14.8043 -4.85894 4.54188e-006 -4.6773e-006 -1.03876 -3.21974 -22.4304 -0.0686036 -1.86878e-007 -6.38552e-006 -0.359023 19.9244 69.2903 -20.6812 -8.13649 25.2327 3.48774 
47.891 122.771 26.0578 -2.98485 4.58201 2.49181 0.557626 -0.900567 -0.0749827 1.11533 2.20043 -0.213565 1.11899 3.84532 -0.232425 12.1114 5.59721 -2.83699 -9.83698 -4.71204 -1.77288 59.2221 -8.94609 -5.56638 95.941 -7.14559 25.7668 -4.77083e-015 -6.36111e-015 -0 10.6838 3.66117 -0.533675 -4.25597e-006 -2.96682e-006 -3.00401 8.02944 -4.95143 0.697668 -51.5178 1.35701 -1.88493 -100.543 -15.6082 -15.8721 -2.38542e-015 0 -1.59028e-015 -18.5624 17.8122 2.61008 6.27627e-006 -1.06107e-006 3.00687 -8.02924 -4.95142 -0.697654 173.646 10.5216 0.300843 180 7.01565e-015 179.007 175.738 12.0314 179.825 3.29162e-006 -8.28294e-006 0.157159 -18.2636 67.4049 19.0641 8.13649 25.2327 -3.48774 -168.471 14.8272 -4.82207 4.54188e-006 -4.6773e-006 -1.039 -3.20747 -22.3137 -0.0654443 -1.86878e-007 -6.38552e-006 -0.357295 19.9176 69.2824 -20.6742 -8.13649 25.2327 3.48774 
47.901 122.517 26.051 -2.96353 4.62313 2.47111 0.558927 -0.900301 -0.0730761 1.11794 2.20097 -0.209902 1.12157 3.84586 -0.228803 11.9701 5.59394 -2.82313 -9.75168 -4.71728 -1.77637 59.1899 -8.96734 -5.57901 96.0518 -7.24707 25.6857 -9.54166e-015 6.36111e-015 3.18055e-015 10.7503 3.91945 -0.5632 -4.25597e-006 -2.96682e-006 -3.00401 8.02944 -4.95143 0.697668 -51.5952 1.34847 -1.86703 -100.656 -15.8132 -15.6272 -2.94201e-014 -9.54166e-015 1.27222e-014 -18.7353 18.3014 2.71877 6.27627e-006 -1.06107e-006 3.00686 -8.02924 -4.95142 -0.697654 173.605 10.5722 0.292836 180 7.01566e-015 179.008 175.771 11.966 179.82 3.29162e-006 -8.28294e-006 0.155744 -18.2653 67.4058 19.0651 8.13649 25.2327 -3.48774 -168.499 14.8521 -4.78492 4.54188e-006 -4.6773e-006 -1.03913 -3.19458 -22.1993 -0.062176 -1.86878e-007 -6.38552e-006 -0.355626 19.9113 69.2749 -20.6676 -8.13649 25.2327 3.48774 
